# xmcd
#
# Track frame offsets: 
#        150
#        13695
#        27840
#        40985
#        54465
#        66350
#        78337
#        92857
#        105807
#        119210
#        131915
#        143390
#        154687
#        166157
#        177272
#        192615
#        204210
#        224767
#        244240
#        256170
#        265942
#        277692
#        294135
#        306197
#        319090
#
# Disc length: 4412 seconds
#
# Revision: 1
# Processed by: cddbd v1.5.2PL0 Copyright (c) Steve Scherf et al.
# Submitted via: ExactAudioCopyFreeDBPlugin 1.0
#
DISCID=64113a19
DTITLE=Various Artist - Dave Godin's Deep Soul Treasures:  Taken from
DTITLE=Our Vaults
DYEAR=1997
DGENRE=Soul
TTITLE0=The Knight Brothers - I'm Never Gonna Live It Down
TTITLE1=Timmy Willis - Easy as Saying 1-2-3
TTITLE2=Zerben R. Hicks and The Dynamics - Lights Out
TTITLE3=Irma Thomas - Anyone Who Knows What Love Is (Will Understand)
TTITLE4=Jean Wells - Have a Little Mercy
TTITLE5=Dori Grayson - Try Love
TTITLE6=Brendetta Davis - I Can't Make It Without Him
TTITLE7=Kenny Carter - Showdown
TTITLE8=Larry Banks - I'm Not the One
TTITLE9=Jimmy Holiday - The Turning Point
TTITLE10=The Incredibles - Standing Here Crying
TTITLE11=The Just Brothers - She Broke My Heart
TTITLE12=The Untouchables - You're on Top
TTITLE13=Reuben Bell and The Casanovas - It's Not That Easy
TTITLE14=Van and Titus - Cry Baby Cry
TTITLE15=Jean Stanback - I Still Love You
TTITLE16=Bessie Banks - Try to Leave Me If You Can (I Bet You Can't Do
TTITLE16=It)
TTITLE17=Raw Spitt - Songs to Sing
TTITLE18=Lee Moses - How Much Longer (Must I Wait)
TTITLE19=Billy Young - Nothing's Too Much (Nothing's Too Good)
TTITLE20=Sam and Bill - I Feel Like Cryin'
TTITLE21=Eddie and Ernie - I'm Goin' for Myself
TTITLE22=The Knight Brothers - Tried So Hard to Please Her
TTITLE23=Pearlean Gray and The Passengers - The Love of My Man
TTITLE24=Jaibi - You Got Me
EXTD=
EXTT0=
EXTT1=
EXTT2=
EXTT3=
EXTT4=
EXTT5=
EXTT6=
EXTT7=
EXTT8=
EXTT9=
EXTT10=
EXTT11=
EXTT12=
EXTT13=
EXTT14=
EXTT15=
EXTT16=
EXTT17=
EXTT18=
EXTT19=
EXTT20=
EXTT21=
EXTT22=
EXTT23=
EXTT24=
PLAYORDER=
